<svg width="46" height="46" viewBox="0 0 46 46" fill="none" xmlns="http://www.w3.org/2000/svg">
<g clip-path="url(#clip0_177_399)">
<path fill-rule="evenodd" clip-rule="evenodd" d="M14.6426 20.9332C13.967 21.4404 13.1283 21.7415 12.2205 21.7415C9.99117 21.7415 8.17749 19.9274 8.17749 17.6986C8.17749 15.4693 9.99117 13.6556 12.2205 13.6556C14.4493 13.6556 16.2631 15.4693 16.2631 17.6986C16.2632 18.0334 16.2216 18.3669 16.1392 18.6914L18.3076 20.1373L22.6686 12.2879C22.0376 11.5744 21.6533 10.6377 21.6533 9.61292C21.6533 7.38372 23.4671 5.56995 25.6963 5.56995C27.9255 5.56995 29.7389 7.38372 29.7389 9.61292C29.739 9.9464 29.6978 10.2786 29.6161 10.6019L34.8727 14.0795L38.9282 6.80602C38.298 6.09284 37.9143 5.15685 37.9143 4.13245C37.9143 1.90352 39.728 0.0898438 41.9573 0.0898438C44.1862 0.0898438 45.9999 1.90352 45.9999 4.13245C45.9999 6.36175 44.1862 8.17542 41.9573 8.17542C41.727 8.17542 41.5022 8.15503 41.2828 8.11819L37.1271 15.571L39.5315 17.1616C40.2303 16.6345 41.082 16.3498 41.9573 16.3508C44.1861 16.3508 45.9999 18.1642 45.9999 20.3935C45.9999 22.6227 44.1862 24.4364 41.9573 24.4364C39.728 24.4364 37.9143 22.6227 37.9143 20.3935C37.9142 20.06 37.9555 19.7278 38.0372 19.4045L35.8107 17.9316L31.4203 25.8058C32.0502 26.519 32.4342 27.455 32.4342 28.479C32.4342 30.7083 30.6205 32.522 28.3913 32.522C26.1623 32.522 24.3486 30.7083 24.3486 28.479C24.3485 28.1442 24.3901 27.8107 24.4725 27.4863L19.2444 24.0009L15.2481 31.1947C15.8787 31.9082 16.2631 32.8445 16.2631 33.8697C16.2631 36.0989 14.4493 37.9123 12.2205 37.9123C9.99117 37.9123 8.17749 36.0989 8.17749 33.8697C8.17749 31.6405 9.99117 29.8267 12.2205 29.8267C12.4458 29.827 12.6707 29.8461 12.8928 29.8839L16.9944 22.501L14.6426 20.9332ZM10.8728 33.8697C10.8728 34.6127 11.4771 35.2173 12.2205 35.2173C12.9634 35.2173 13.5678 34.6127 13.5678 33.8697C13.5678 33.1266 12.9635 32.522 12.2205 32.522C11.4771 32.522 10.8728 33.1266 10.8728 33.8697ZM43.3046 20.3938C43.3046 19.6508 42.7003 19.0462 41.9573 19.0462C41.2139 19.0462 40.6096 19.6508 40.6096 20.3938C40.6096 21.1368 41.2139 21.7415 41.9573 21.7415C42.7002 21.7415 43.3046 21.1368 43.3046 20.3938ZM43.3046 4.13281C43.3046 3.3898 42.7003 2.78516 41.9573 2.78516C41.2139 2.78516 40.6096 3.3898 40.6096 4.13281C40.6096 4.87582 41.2139 5.48047 41.9573 5.48047C42.7002 5.48047 43.3046 4.87582 43.3046 4.13281ZM27.044 28.4794C27.044 29.2224 27.6482 29.827 28.3913 29.827C29.1345 29.827 29.7389 29.2224 29.7389 28.4794C29.7389 27.7361 29.1345 27.1317 28.3913 27.1317C27.6482 27.1317 27.044 27.7361 27.044 28.4794ZM27.044 9.61292C27.044 8.86991 26.4393 8.26527 25.6963 8.26527C24.9529 8.26527 24.3486 8.86991 24.3486 9.61292C24.3486 10.3563 24.9529 10.9606 25.6963 10.9606C26.4393 10.9606 27.044 10.3563 27.044 9.61292ZM26.6505 13.5421C26.1177 13.6717 25.564 13.691 25.0235 13.5987L20.5577 21.6373L25.969 25.2447C26.6445 24.7375 27.4833 24.4365 28.3913 24.4365C28.6173 24.4367 28.843 24.456 29.0658 24.494L33.5566 16.4404L28.1216 12.8449C27.6839 13.1752 27.1833 13.4124 26.6505 13.5421ZM13.5678 17.6985C13.5678 16.9555 12.9635 16.3508 12.2205 16.3508C11.4771 16.3508 10.8728 16.9555 10.8728 17.6985C10.8728 18.4415 11.4771 19.0462 12.2205 19.0462C12.9634 19.0462 13.5678 18.4415 13.5678 17.6985ZM39.8096 39.5395L41.7153 37.6334L46 41.9873L41.6833 46.0879L39.8415 44.125L40.7196 43.303H2.78722V4.64918L1.71125 5.53325L0 3.45139L4.12338 0.090332L8.34568 3.44016L6.66209 5.54448L5.48227 4.60076V40.6077H40.8782L39.8096 39.5395Z" fill="white"/>
</g>
<defs>
<clipPath id="clip0_177_399">
<rect width="46" height="46" fill="white"/>
</clipPath>
</defs>
</svg>
