<svg width="1088" height="178" viewBox="0 0 1088 178" fill="none" xmlns="http://www.w3.org/2000/svg">
<path d="M926.121 4.33618H969.833V72.3055H1044.05V4.33618H1088V173.659H1044.05V110.733H969.833V173.659H926.121V4.33618Z" fill="white"/>
<path d="M820.647 177.021C765.167 177.021 730.822 139.074 730.822 88.8774C730.822 38.9212 765.167 0.973633 820.647 0.973633C869.162 0.973633 901.345 27.1526 906.389 69.6635H861.477C857.874 51.4102 842.263 40.6024 820.887 40.6024C794.708 40.6024 775.975 55.4932 775.975 88.8774C775.975 122.502 794.708 137.393 820.887 137.393C842.263 137.393 857.874 126.345 861.477 108.091H906.389C901.345 150.842 869.162 177.021 820.647 177.021Z" fill="white"/>
<path d="M582.512 173.659V4.33618H717.25V42.5239H626.464V70.8644H705.241V106.891H626.464V135.471H717.25V173.659H582.512Z" fill="white"/>
<path d="M410.88 4.33618H563.391V42.5239H508.871V173.659H465.399V42.5239H410.88V4.33618Z" fill="white"/>
<path d="M353.656 4.33618H400.49L359.661 108.332H336.844V173.659H293.373V108.332H270.556L230.207 4.33618H276.801L309.704 98.4845H320.512L353.656 4.33618Z" fill="white"/>
<path d="M0.840454 173.659V4.33618H87.063L102.915 162.851H113.963L129.814 4.33618H215.076V173.659H171.604V68.2225L179.53 15.144H169.203L149.989 173.659H65.6875L46.9539 15.144H36.1461L44.5522 68.2225V173.659H0.840454Z" fill="white"/>
</svg>
