<svg width="121" height="25" viewBox="0 0 121 25" fill="none" xmlns="http://www.w3.org/2000/svg">
<path d="M29.14 18V3.9H36.32L37.64 17.1H38.56L39.88 3.9H46.98V18H43.36V9.22L44.02 4.8H43.16L41.56 18H34.54L32.98 4.8H32.08L32.78 9.22V18H29.14ZM58.52 3.9H62.42L59.02 12.56H57.12V18H53.5V12.56H51.6L48.24 3.9H52.12L54.86 11.74H55.76L58.52 3.9ZM63.2852 3.9H75.9852V7.08H71.4452V18H67.8252V7.08H63.2852V3.9ZM77.5775 18V3.9H88.7975V7.08H81.2375V9.44H87.7975V12.44H81.2375V14.82H88.7975V18H77.5775ZM97.4077 18.28C92.7877 18.28 89.9277 15.12 89.9277 10.94C89.9277 6.78 92.7877 3.62 97.4077 3.62C101.448 3.62 104.128 5.8 104.548 9.34H100.808C100.508 7.82 99.2077 6.92 97.4277 6.92C95.2477 6.92 93.6877 8.16 93.6877 10.94C93.6877 13.74 95.2477 14.98 97.4277 14.98C99.2077 14.98 100.508 14.06 100.808 12.54H104.548C104.128 16.1 101.448 18.28 97.4077 18.28ZM106.191 3.9H109.831V9.56H116.011V3.9H119.671V18H116.011V12.76H109.831V18H106.191V3.9Z" fill="white"/>
<path d="M0 0H9C9 4.97056 4.97056 9 0 9V0Z" fill="white"/>
<path d="M0 11C4.97056 11 9 15.0294 9 20H0V11Z" fill="white"/>
<path d="M11 20C11 15.0294 15.0294 11 20 11V20H11Z" fill="white"/>
<path d="M11 0H20V9C15.0294 9 11 4.97056 11 0Z" fill="white"/>
</svg>
